<?xml version="1.0" encoding="UTF-8"?>
<svg id="Capa_2" data-name="Capa 2" xmlns="http://www.w3.org/2000/svg" viewBox="0 0 913.36 688.81">
  <defs>
    <style>
      .cls-1 {
        letter-spacing: -.03em;
      }

      .cls-2 {
        letter-spacing: 0em;
      }

      .cls-3 {
        letter-spacing: -.02em;
      }

      .cls-4 {
        fill: #2ea6d7;
      }

      .cls-5 {
        letter-spacing: 0em;
      }

      .cls-6 {
        font-family: MinionVariableConcept-Roman, 'Minion Variable Concept';
        font-size: 158.74px;
        font-variation-settings: 'wght' 400, 'opsz' 11;
      }

      .cls-6, .cls-7 {
        fill: #536d79;
      }

      .cls-8 {
        fill: #516c78;
      }

      .cls-9 {
        letter-spacing: 0em;
      }

      .cls-10 {
        letter-spacing: -.02em;
      }

      .cls-11 {
        fill: #2b9de4;
      }

      .cls-12 {
        letter-spacing: 0em;
      }
    </style>
  </defs>
  <g id="Capa_2-2" data-name="Capa 2">
    <g>
      <g>
        <rect class="cls-8" x="291.15" y="113.04" width="69.21" height="69.21" rx="34.61" ry="34.61"/>
        <rect class="cls-11" x="535.98" y="264.64" width="69.21" height="69.21" rx="34.61" ry="34.61"/>
        <path class="cls-7" d="m464.1,129.05h122.51c9.49,0,18.85,2.42,27.05,7.2,52.62,30.67,39.52,97.74,21.2,96.38h-98.87c-32.68-25.63-102.04-69.69-71.88-103.58Z"/>
        <path class="cls-4" d="m396.1,40.89c4.04-20.09,22.49-36.72,44.84-39.3,16.04-1.85,51.23-5.97,55.26,15.54,1.17,6.23.04,12.66-1.28,18.86-13.13,61.73,1.06,119.97,32.94,173.45,4.65,7.81,14.58,23.02,14.58,23.02-8.82.2-13.55.15-26.13.2-11.45.04-23.5.81-34.77-1.05-22.42-3.7-44.31-13.15-59.76-30.23-25.16-27.82-32.09-59.46-31.76-94.91.19-20.7,1.97-45.14,6.07-65.56Z"/>
        <path class="cls-7" d="m434.37,330.65h-114.89c-38.3,0-70.46-29.96-71.91-68.24-.76-20.04,7.01-36.01,16.04-35.34h98.87c32.68,25.63,102.04,69.69,71.88,103.58Z"/>
        <path class="cls-4" d="m502.37,418.81c-4.04,20.09-22.49,36.72-44.84,39.3-16.04,1.85-51.23,5.97-55.26-15.54-1.17-6.23-.04-12.66,1.28-18.86,13.13-61.73-1.06-119.97-32.94-173.45-4.65-7.81-14.58-23.02-14.58-23.02,8.82-.2,13.55-.15,26.13-.2,11.45-.04,23.5-.81,34.77,1.05,22.42,3.7,44.31,13.15,59.76,30.23,25.16,27.82,32.09,59.46,31.76,94.91-.19,20.7-1.97,45.14-6.07,65.56Z"/>
      </g>
      <text class="cls-6" transform="translate(0 631.19)"><tspan class="cls-1" x="0" y="0">H</tspan><tspan class="cls-5" x="119.84" y="0">e</tspan><tspan x="189.21" y="0">a</tspan><tspan class="cls-12" x="260.32" y="0">l</tspan><tspan x="300.64" y="0">th </tspan><tspan class="cls-3" x="472.07" y="0">M</tspan><tspan class="cls-2" x="612.56" y="0">a</tspan><tspan class="cls-9" x="682.4" y="0">s</tspan><tspan class="cls-10" x="740.18" y="0">t</tspan><tspan x="785.74" y="0">er</tspan></text>
    </g>
  </g>
</svg>